<?xml version="1.0"?>
<svg xmlns="http://www.w3.org/2000/svg" height="512px" viewBox="0 -64 368.00333 368" width="512px" class=""><g><path d="m319.355469 116.851562c-1.257813-2.945312-4.152344-4.851562-7.355469-4.851562h-34.367188l-38.101562-106.6875c-1.128906-3.183594-4.144531-5.3125-7.53125-5.3125h-96c-3.382812 0-6.398438 2.128906-7.535156 5.3125l-38.09375 106.6875h-34.371094c-3.199219 0-6.09375 1.90625-7.351562 4.851562l-48 112c-1.0625 2.46875-.808594 5.300782.671874 7.550782 1.480469 2.246094 3.992188 3.597656 6.679688 3.597656h352c2.691406 0 5.195312-1.351562 6.683594-3.589844 1.476562-2.25 1.734375-5.089844.671875-7.550781zm-177.714844-100.851562h84.722656l34.285157 96h-153.292969zm42.359375 195.707031-35.871094-83.707031h71.746094zm-163.863281 12.292969 41.144531-96h69.441406l41.144532 96zm176 0 41.144531-96h69.449219l41.144531 96zm0 0" data-original="#000000" class="active-path" data-old_color="#F9F7F7" fill="#FFFEFE"/></g> </svg>
