<svg width="193" height="89" viewBox="0 0 193 89" fill="none" xmlns="http://www.w3.org/2000/svg">
  <g clip-path="url(#clip0)">
    <path fill-rule="evenodd" clip-rule="evenodd" d="M172.201 20.7948L162.265 67.8875L154.086 55.2875L134.836 67.8243L129.776 67.8245L126.865 67.8247L108.53 39.6429L133.429 23.4691L125.151 10.72L172.201 20.7948Z" fill="url(#paint0_linear)"/>
    <path
        d="M32.9372 55.6716C32.9372 57.5382 33.4222 58.9858 34.3921 60.0147C35.3767 61.0582 36.7654 61.5799 38.5582 61.5799C40.3511 61.5799 41.7324 61.0582 42.7023 60.0147C43.6722 58.9858 44.1572 57.5382 44.1572 55.6716V36.0065H52.247V56.5314C52.247 60.1029 50.9979 62.9688 48.4997 65.1294C46.0014 67.2899 42.6877 68.3701 38.5582 68.3701C34.4141 68.3701 31.093 67.2899 28.5947 65.1294C26.0965 62.9688 24.8474 60.1029 24.8474 56.5314V36.0065H32.9372V55.6716ZM71.0057 36.0065C74.4297 36.0065 77.1851 37.028 79.2719 39.0709C81.388 41.1432 82.4461 43.8769 82.4461 47.272C82.4461 50.6525 81.3366 53.3714 79.1176 55.4291C76.9279 57.472 74.055 58.4935 70.4987 58.4935H65.1422V67.819H57.0524V36.0065H71.0057ZM65.1422 52.4088H68.8014C70.5354 52.4088 71.8801 51.9752 72.8353 51.1081C73.7905 50.2115 74.2681 48.9402 74.2681 47.2941C74.2681 45.648 73.7905 44.384 72.8353 43.5022C71.8948 42.635 70.5648 42.2014 68.8455 42.2014H65.1422V52.4088ZM88.3064 54.8496V48.1255H102.811V54.8496H88.3064ZM114.339 51.8797V51.7033L104.64 36.0065H114.075L119.916 46.765H120.071L125.956 36.0065H134.928L124.81 51.7915V51.9458L134.839 67.819H125.758L119.586 57.5014H119.409L113.215 67.819H104.618L114.339 51.8797Z"
        fill="white"/>
  </g>
  <defs>
    <linearGradient id="paint0_linear" x1="134.371" y1="53.3072" x2="154.345" y2="20.5601" gradientUnits="userSpaceOnUse">
      <stop stop-color="#7271A8"/>
      <stop offset="1" stop-color="#3D8DD0"/>
    </linearGradient>

    <clipPath id="clip0">
      <rect width="193" height="89" fill="white"/>
    </clipPath>
  </defs>
</svg>
